<?xml version="1.0" encoding="UTF-8" standalone="no"?>
<svg
   viewBox="0 0 64 64"
   version="1.1"
   id="svg2"
   sodipodi:docname="favicon.svg"
   inkscape:export-filename="favicon.png"
   inkscape:export-xdpi="96"
   inkscape:export-ydpi="96"
   inkscape:version="1.3.2 (091e20e, 2023-11-25)"
   xmlns:inkscape="http://www.inkscape.org/namespaces/inkscape"
   xmlns:sodipodi="http://sodipodi.sourceforge.net/DTD/sodipodi-0.dtd"
   xmlns="http://www.w3.org/2000/svg"
   xmlns:svg="http://www.w3.org/2000/svg">
  <defs
     id="defs2" />
  <sodipodi:namedview
     id="namedview2"
     pagecolor="#ffffff"
     bordercolor="#666666"
     borderopacity="1.0"
     inkscape:showpageshadow="2"
     inkscape:pageopacity="0.0"
     inkscape:pagecheckerboard="0"
     inkscape:deskcolor="#d1d1d1"
     inkscape:zoom="3.6875"
     inkscape:cx="31.864407"
     inkscape:cy="31.864407"
     inkscape:window-width="1296"
     inkscape:window-height="852"
     inkscape:window-x="405"
     inkscape:window-y="208"
     inkscape:window-maximized="0"
     inkscape:current-layer="svg2" />
  <path
     fill="#FF8700"
     d="M0 0h64v64H0z"
     id="path1" />
  <path
     fill="#FFF"
     d="M42.8 32.8c-3.6 0-8.1-10.1-8.1-15.1 0-2.3.9-2.7 3.2-2.7 5.5 0 11 .9 11 4-.1 6.2-4 13.8-6.1 13.8zM28.5 18.5c0 5 6.4 20.2 10.7 20.2.5 0 .9-.1 1.4-.2-3.8 6.1-8.4 10.6-11.2 10.6-5.9 0-14.3-17.9-14.3-25.7 0-1.2.3-2.2.7-2.8 2-2.5 8.4-4.4 13.7-5-.6.4-1 1-1 2.9z"
     id="path2" />
</svg>
